HIERARCHY
ROOT Hips
{
	OFFSET -3.958830 18.904000 13.208200
	CHANNELS 6 Xposition Yposition Zposition Zrotation Yrotation Xrotation 
	JOINT LHipJoint
	{
		OFFSET 0.000000 0.000000 0.000000
		CHANNELS 3 Zrotation Yrotation Xrotation
		JOINT LeftUpLeg
		{
			OFFSET 1.800000 -1.400000 0.085000
			CHANNELS 3 Zrotation Yrotation Xrotation
			JOINT LeftLeg
			{
				OFFSET 2.215000 -6.000000 0.000000
				CHANNELS 3 Zrotation Yrotation Xrotation
				JOINT LeftFoot
				{
					OFFSET 2.500000 -6.900000 0.000000
					CHANNELS 3 Zrotation Yrotation Xrotation
					JOINT LeftToeBase
					{
						OFFSET 0.200000 -0.500000 1.950000
						CHANNELS 3 Zrotation Yrotation Xrotation
						End Site
						{
							OFFSET 0.000000 0.000000 0.000000
						}
					}
				}
			}
		}
	}
	JOINT RHipJoint
	{
		OFFSET 0.000000 0.000000 0.000000
		CHANNELS 3 Zrotation Yrotation Xrotation
		JOINT RightUpLeg
		{
			OFFSET -1.800000 -1.400000 0.085000
			CHANNELS 3 Zrotation Yrotation Xrotation
			JOINT RightLeg
			{
				OFFSET -2.215000 -6.000000 0.000000
				CHANNELS 3 Zrotation Yrotation Xrotation
				JOINT RightFoot
				{
					OFFSET -2.500000 -6.900000 0.000000
					CHANNELS 3 Zrotation Yrotation Xrotation
					JOINT RightToeBase
					{
						OFFSET -0.200000 -0.500000 1.950000
						CHANNELS 3 Zrotation Yrotation Xrotation
						End Site
						{
							OFFSET 0.000000 0.000000 0.000000
						}
					}
				}
			}
		}
	}
	JOINT LowerBack
	{
		OFFSET 0.000000 0.000000 0.000000
		CHANNELS 3 Zrotation Yrotation Xrotation
		JOINT Spine
		{
			OFFSET -0.087000 1.940000 -0.288900
			CHANNELS 3 Zrotation Yrotation Xrotation
			JOINT Spine1
			{
				OFFSET 0.000000 1.950000 0.060000
				CHANNELS 3 Zrotation Yrotation Xrotation
				JOINT Neck
				{
					OFFSET 0.000000 0.000000 0.000000
					CHANNELS 3 Zrotation Yrotation Xrotation
					JOINT Neck1
					{
						OFFSET 0.000000 1.600000 0.340000
						CHANNELS 3 Zrotation Yrotation Xrotation
						JOINT Head
						{
							OFFSET 0.000000 1.667000 -0.240000
							CHANNELS 3 Zrotation Yrotation Xrotation
							End Site
							{
								OFFSET 0.000000 0.000000 0.000000
							}
						}
					}
				}
				JOINT LeftShoulder
				{
					OFFSET 0.000000 0.000000 0.000000
					CHANNELS 3 Zrotation Yrotation Xrotation
					JOINT LeftArm
					{
						OFFSET 2.700000 1.550000 -0.730000
						CHANNELS 3 Zrotation Yrotation Xrotation
						JOINT LeftForeArm
						{
							OFFSET 5.450000 0.000000 0.000000
							CHANNELS 3 Zrotation Yrotation Xrotation
							JOINT LeftHand
							{
								OFFSET 3.450000 0.000000 0.000000
								CHANNELS 3 Zrotation Yrotation Xrotation
								JOINT LeftHandIndex1
								{
									OFFSET 0.750000 0.000000 0.000000
									CHANNELS 3 Zrotation Yrotation Xrotation
									End Site
									{
										OFFSET 0.000000 0.000000 0.000000
									}
								}
							}
						}
					}
				}
				JOINT RightShoulder
				{
					OFFSET 0.000000 0.000000 0.000000
					CHANNELS 3 Zrotation Yrotation Xrotation
					JOINT RightArm
					{
						OFFSET -2.700000 1.550000 -0.730000
						CHANNELS 3 Zrotation Yrotation Xrotation
						JOINT RightForeArm
						{
							OFFSET -5.450000 0.000000 0.000000
							CHANNELS 3 Zrotation Yrotation Xrotation
							JOINT RightHand
							{
								OFFSET -3.450000 0.000000 0.000000
								CHANNELS 3 Zrotation Yrotation Xrotation
								JOINT RightHandIndex1
								{
									OFFSET -0.750000 0.000000 0.000000
									CHANNELS 3 Zrotation Yrotation Xrotation
									End Site
									{
										OFFSET 0.000000 0.000000 0.000000
									}
								}
							}
						}
					}
				}
			}
		}
	}
}
MOTION
Frames: 10
Frame Time: 0.016667
-0.682800 16.903200 -2.337100 2.413565 10.103933 -0.447910 -14.777987 12.579252 2.273674 4.259558 -1.279729 -17.119740 0.246359 4.149534 16.744818 -0.261589 3.071084 3.697340 1.082760 1.087430 0.487680 18.476897 -12.377510 2.760716 -18.369108 1.442057 -5.896125 6.726522 -5.186537 10.990980 -0.280306 -4.968734 2.657436 0.785600 0.363440 0.350930 -4.627114 2.278822 -7.258511 9.977617 6.123251 3.941304 -9.619572 8.171899 33.044470 9.622842 -4.554683 -23.480808 -4.966294 -0.879847 26.421854 1.315210 -7.379750 -4.208100 -9.935306 -18.428712 -1.321753 -55.064299 -27.760167 3.665128 -16.972182 -28.186170 1.536018 -3.793035 3.735170 -0.326090 0.374870 -0.173500 0.527640 -4.606829 26.484621 41.856906 -92.577998 60.996852 -136.739093 -58.722218 68.169926 -40.879610 9.406194 -6.751031 0.235560 0.040170 -0.572620 0.205730 
-0.672870 16.900880 -2.331310 2.575549 10.128970 -0.490228 -14.766644 12.524839 2.233104 4.152299 -1.278799 -16.888775 0.065637 4.203673 16.803195 -0.259214 3.090910 3.694509 1.089820 1.101180 0.470870 18.506205 -12.392520 2.723850 -18.660319 1.474493 -5.837596 6.713992 -5.249718 11.223919 -0.290122 -5.011807 2.645908 0.795370 0.374320 0.347640 -4.672576 2.426963 -7.135373 10.067746 6.198801 3.507817 -9.895911 8.410660 33.085572 9.804043 -4.907047 -23.063105 -5.436019 -0.593069 26.436994 1.852640 -7.578460 -4.444030 -9.409775 -18.608821 -0.926585 -55.179750 -27.416924 3.565018 -16.796722 -28.311780 1.473819 -3.788263 3.731681 -0.324690 0.371120 -0.175220 0.541340 -5.290182 27.294440 40.996781 -91.625048 61.067883 -137.180820 -60.420756 68.767505 -40.749618 9.980864 -7.340692 0.235240 0.051820 -0.572050 0.216660 
-0.654070 16.902640 -2.323200 2.779086 10.185167 -0.755505 -14.742572 12.463405 2.190871 4.122631 -1.268942 -16.284431 -0.396873 4.304822 16.673285 -0.242677 3.102611 3.687570 1.105010 1.123410 0.470700 18.545925 -12.430826 2.676084 -19.137308 1.503887 -5.642015 6.702973 -5.382965 11.737623 -0.314896 -5.069018 2.622101 0.799550 0.358470 0.338920 -4.750250 2.626440 -7.014271 10.403991 6.209100 3.195918 -10.464874 8.739565 33.105123 10.203331 -5.464542 -22.526019 -6.307089 -0.231530 26.804446 2.492130 -7.795930 -5.040480 -8.981426 -19.047840 -0.275401 -54.982707 -26.850698 3.223343 -16.309566 -28.673258 1.366506 -3.755218 3.722576 -0.310940 0.344420 -0.158320 0.547820 -6.276923 28.479514 39.786260 -90.150566 60.839152 -137.816819 -63.033504 69.973580 -40.323469 10.876323 -7.998376 0.244950 0.055980 -0.580990 0.224350 
-0.633120 16.903120 -2.313330 3.079184 10.228740 -1.130936 -14.727439 12.388412 2.146893 4.049097 -1.265293 -15.487483 -0.864041 4.397072 16.508745 -0.228814 3.121142 3.679539 1.104480 1.129740 0.457240 18.575423 -12.496420 2.627322 -19.740812 1.520043 -5.364480 6.567510 -5.532776 12.341839 -0.337095 -5.147740 2.590783 0.795010 0.349760 0.331720 -4.798757 2.878472 -6.921328 10.615625 6.196764 3.111222 -11.444235 9.219886 33.186252 11.102495 -6.122692 -22.196890 -7.362091 0.211267 27.095722 3.038610 -7.938130 -5.491140 -8.526520 -19.676285 0.483916 -54.260079 -26.034888 2.442859 -15.672136 -29.740084 1.255778 -3.721355 3.720883 -0.300450 0.324190 -0.148980 0.548270 -8.233173 29.680042 39.756572 -87.003544 58.981329 -140.878743 -71.140195 75.584343 -40.442616 13.132350 -9.236616 0.251430 0.057940 -0.577580 0.231870 
-0.607710 16.900730 -2.309070 3.265437 11.177543 -1.492639 -14.726989 12.379603 2.147880 3.828849 -1.396314 -15.230910 -0.960344 4.410003 16.730570 -0.209941 3.133611 3.678738 1.101590 1.121550 0.446210 18.580929 -12.500136 2.602631 -20.199677 1.470389 -4.698695 6.577728 -5.684553 12.671692 -0.360611 -5.230945 2.564845 0.780330 0.343290 0.323680 -4.830624 2.846499 -6.929025 10.938132 5.673791 3.455330 -12.476015 9.244409 33.016539 11.848916 -6.725319 -22.032064 -8.657581 0.349088 27.238189 3.703500 -8.462030 -5.815720 -8.336079 -19.847750 0.898420 -53.810075 -25.484552 1.822520 -14.834871 -30.585918 1.078720 -3.673244 3.736013 -0.288810 0.299890 -0.143770 0.552270 -9.792384 30.286096 40.034601 -84.092218 56.478403 -145.538867 -82.299390 84.109562 -41.413837 13.620701 -8.468769 0.256640 0.057620 -0.578300 0.240300 
-0.587100 16.898050 -2.303540 3.427674 11.670757 -1.917145 -14.734698 12.460154 2.193047 3.757670 -1.476912 -14.858443 -1.127130 4.463940 16.902130 -0.201553 3.180467 3.656160 1.101130 1.107450 0.450170 18.557689 -12.476620 2.584149 -20.493500 1.409639 -4.177407 6.461070 -5.778401 13.090840 -0.365119 -5.262742 2.548291 0.768960 0.326020 0.315720 -4.816306 2.567600 -7.036132 11.120728 4.970029 4.105128 -13.411810 9.089044 32.903757 12.386969 -7.218598 -21.920796 -9.883825 0.425709 27.218201 4.161250 -8.886930 -6.267730 -8.875834 -19.145262 0.720579 -53.190244 -24.904195 1.151413 -14.190595 -31.478919 0.960686 -3.625303 3.747717 -0.271240 0.274820 -0.141030 0.541630 -10.381691 30.222502 40.003888 -83.453210 53.728606 -149.042572 88.559751 88.537437 136.828183 12.072759 -6.058924 0.256880 0.052700 -0.572620 0.233850 
-0.572240 16.899240 -2.298950 3.586412 11.848301 -2.629908 -14.739626 12.643953 2.283367 3.840322 -1.410236 -14.233954 -1.440366 4.615428 17.063856 -0.153424 3.260636 3.640061 1.063720 1.074010 0.404030 18.507574 -12.441467 2.593676 -20.754959 1.356549 -3.474268 6.246887 -5.841111 13.482716 -0.358045 -5.275059 2.559886 0.734660 0.341330 0.300690 -4.779073 2.033570 -7.323460 11.470748 4.046432 5.488663 -14.822464 8.770176 32.555707 12.850574 -7.806912 -22.165631 -11.477877 0.707587 27.530381 4.875250 -9.408930 -6.320660 -8.995293 -17.729046 0.353992 -52.777898 -24.020206 0.094432 -13.897117 -33.450481 0.922163 -3.553761 3.767393 -0.261770 0.259470 -0.141920 0.548840 -11.652504 29.863724 40.123241 -84.184255 50.069080 -150.143349 85.905007 84.727866 134.946843 10.351222 -3.657144 0.252380 0.065670 -0.559640 0.252570 
-0.563060 16.909360 -2.296850 3.693756 11.613314 -3.783238 -14.692411 12.967218 2.515891 4.127503 -1.264166 -13.243886 -1.904040 4.806466 17.146850 -0.109497 3.345744 3.599208 1.057560 1.063820 0.394660 18.427655 -12.495283 2.717243 -20.987066 1.290577 -2.688074 5.948486 -5.854624 13.946800 -0.347414 -5.222893 2.575105 0.708890 0.317150 0.289130 -4.807255 1.303603 -8.140949 12.016114 2.619552 9.050384 -16.887148 8.049484 30.887400 13.462751 -8.462116 -22.834795 -13.331008 1.334054 28.719321 5.897650 -9.752810 -7.235340 -9.073548 -15.602159 -0.263657 -52.590693 -23.143746 -0.890185 -13.349445 -35.123092 0.680768 -3.420893 3.834149 -0.221520 0.215180 -0.113940 0.548150 -14.156805 29.443844 39.763099 -85.156136 46.532558 -149.321730 93.232874 83.854629 133.020807 10.798737 -3.175240 0.257880 0.068450 -0.559460 0.255940 
-0.556410 16.922990 -2.293470 2.866814 13.715218 -4.811445 -14.158064 11.425022 2.009613 4.710341 -1.297188 -11.498615 -2.407734 4.714314 17.328082 -0.181614 3.145038 3.666881 1.063510 1.058280 0.408320 19.091226 -13.772679 2.952409 -20.878825 0.681146 -2.357225 5.640650 -6.312577 14.041132 -0.512315 -5.669368 2.434832 0.689710 0.283370 0.282670 -6.615992 6.092627 -8.224449 15.967155 7.586996 7.888784 -10.814003 11.579257 21.321570 11.503656 -9.331982 -12.028233 -10.239930 1.113043 34.235323 6.628370 -9.820920 -8.359710 -15.176570 -32.528948 14.332484 -53.350342 -17.076804 -1.708171 -13.233566 -36.245921 0.472715 -3.333973 3.763169 -0.171960 0.169640 -0.080010 0.541000 -3.315903 48.335076 -0.319475 18.113608 48.690783 -7.845942 -88.963374 65.424039 -50.106708 5.336678 -1.488647 0.261560 0.070640 -0.561090 0.247110 
-0.554750 16.927100 -2.294460 2.659958 13.708878 -5.409590 -14.239930 11.303990 1.823790 5.283282 -1.204766 -10.745790 -2.687068 4.853727 17.346534 -0.140337 3.238800 3.620265 1.084920 1.069380 0.436290 19.106105 -13.683036 2.766512 -20.608466 0.451260 -1.805612 5.197942 -6.377465 14.446767 -0.545363 -5.718556 2.416389 0.681840 0.244160 0.287120 -6.472426 6.255842 -7.480952 15.585646 7.180176 6.243463 -11.656951 11.491841 22.486549 12.465372 -8.779985 -10.698876 -9.321535 1.939014 33.666649 7.223890 -9.428620 -9.290620 -15.083333 -31.956717 14.794982 -52.333307 -15.738059 -2.968164 -13.473800 -38.573118 0.626780 -3.335996 3.707831 -0.136440 0.133410 -0.050600 0.529070 -5.027258 48.080150 -1.949511 14.151205 46.428409 -5.636350 -96.499057 65.144285 -53.531425 3.806672 -0.698370 0.275890 0.053350 -0.567950 0.234720 
